# xmcd
#
# Track frame offsets:
#	150
#	12691
#	25104
#	39223
#	48438
#	63004
#	74053
#	83368
#	94042
#	106898
#	117818
#	126404
#	142188
#
# Disc length: 2087 seconds
#
# Revision: 0
# Processed by: cddbd v1.4PL0 Copyright (c) Steve Scherf et al.
# Submitted via: audiograbber 1.82.01
#
DISCID=ab08250d
DTITLE=Dalmatinski Trubaduri - Marijana
DYEAR=1900
DGENRE=
TTITLE0=Lilijane moj bijeli
TTITLE1=Ciribiri bella
TTITLE2=Da ni je ljubavi
TTITLE3=U Marina
TTITLE4=Poci cu na more
TTITLE5=Barka je malena
TTITLE6=Sve pticice iz gore
TTITLE7=Marice divojko
TTITLE8=Tulipan, jorgovan
TTITLE9=Dva bracanina
TTITLE10=Ja nikoga nemam
TTITLE11=Dok palme njisu grane
TTITLE12=Marijana
EXTD=
EXTT0=
EXTT1=
EXTT2=
EXTT3=
EXTT4=
EXTT5=
EXTT6=
EXTT7=
EXTT8=
EXTT9=
EXTT10=
EXTT11=
EXTT12=
PLAYORDER=
